<?xml version="1.0" encoding="utf-8"?>
<!-- Generator: Adobe Illustrator 19.2.0, SVG Export Plug-In . SVG Version: 6.00 Build 0)  -->
<svg version="1.1" id="FC_Icons" xmlns="http://www.w3.org/2000/svg" xmlns:xlink="http://www.w3.org/1999/xlink" x="0px" y="0px"
	 viewBox="0 0 53.553 55.614" style="enable-background:new 0 0 53.553 55.614;" xml:space="preserve">
<style type="text/css">
	.st0{fill-rule:evenodd;clip-rule:evenodd;fill:#FFFFFF;}
</style>
<g>
	<path class="st0" d="M1.146,5.357h8.349v4.778c0,2.812,2.273,5.099,5.075,5.099s5.075-2.283,5.075-5.099V5.357H33.97v4.778
		c0,2.812,2.273,5.099,5.075,5.099c2.802,0,5.076-2.283,5.076-5.099V5.357h8.287c0.63,0,1.146,0.518,1.146,1.151
		c0,11.133,0,22.022,0,33.154c0,0.791-0.151,1.423-0.742,1.994L41.723,54.472c-0.652,0.758-1.74,1.142-2.719,1.142
		c-15.469,0-22.389,0-37.859,0C0.515,55.614,0,55.096,0,54.463V6.509C0,5.876,0.515,5.357,1.146,5.357L1.146,5.357z M49.358,37.924
		V20.082c0-0.359-0.304-0.658-0.655-0.658H4.851c-0.351,0-0.655,0.305-0.655,0.658V50.74c0,0.353,0.297,0.658,0.655,0.658h32.774
		c1.199,0,1.711-0.631,1.792-1.807V42.71c0.027-1.985,1.038-2.963,2.973-2.986h5.176C48.84,39.696,49.332,39.009,49.358,37.924
		L49.358,37.924z M35.771,3.289C35.771,1.473,37.237,0,39.045,0c1.809,0,3.275,1.473,3.275,3.289v6.846
		c0,1.816-1.466,3.289-3.275,3.289c-1.808,0-3.274-1.473-3.274-3.289V3.289L35.771,3.289z M11.296,3.289
		C11.296,1.473,12.761,0,14.57,0c1.808,0,3.274,1.473,3.274,3.289v6.846c0,1.816-1.466,3.289-3.274,3.289
		c-1.809,0-3.274-1.473-3.274-3.289V3.289L11.296,3.289z M37.068,32.953v4.917H16.485v-4.917H37.068z"/>
</g>
<rect x="24.318" y="25.12" class="st0" width="4.917" height="20.583"/>
</svg>
