<?xml version="1.0" encoding="utf-8"?>
<!-- Generator: Adobe Illustrator 19.2.0, SVG Export Plug-In . SVG Version: 6.00 Build 0)  -->
<svg version="1.1" id="FC_Icons" xmlns="http://www.w3.org/2000/svg" xmlns:xlink="http://www.w3.org/1999/xlink" x="0px" y="0px"
	 viewBox="0 0 46.05 57.912" style="enable-background:new 0 0 46.05 57.912;" xml:space="preserve">
<style type="text/css">
	.st0{fill-rule:evenodd;clip-rule:evenodd;fill:#4F4F4F;}
	.st1{fill:#4F4F4F;}
</style>
<g id="document">
	<g>
		<polygon class="st0" points="10.826,29.041 35.747,29.041 35.747,26.281 10.826,26.281 10.826,29.041 		"/>
		<polygon class="st0" points="10.826,36.478 35.747,36.478 35.747,33.718 10.826,33.718 10.826,36.478 		"/>
		<polygon class="st0" points="10.826,14.166 35.747,14.166 35.747,11.406 10.826,11.406 10.826,14.166 		"/>
		<polygon class="st0" points="10.826,21.604 35.747,21.604 35.747,18.843 10.826,18.843 10.826,21.604 		"/>
		<polygon class="st0" points="22.014,43.917 35.747,43.917 35.747,41.154 22.014,41.154 22.014,43.917 		"/>
		<path class="st1" d="M43.936,2.114L43.93,2.12C42.62,0.813,40.819,0,38.844,0H7.206C5.235,0,3.434,0.811,2.125,2.114L2.12,2.12
			L2.116,2.125C0.811,3.434,0,5.233,0,7.206v37.722v1.156l0.849,0.806l10.824,10.269l0.794,0.753h1.075h25.303
			c1.984,0,3.786-0.811,5.092-2.116c1.303-1.303,2.114-3.106,2.114-5.09V7.206C46.05,5.222,45.239,3.42,43.936,2.114z
			 M14.064,47.955l-0.03,0.115l-0.009,0.113l-0.177,2.419l-0.081,1.073l-6.611-6.271l1.239-0.154l2.385-0.297l0.034-0.004
			l0.115-0.028c0.252-0.06,0.572-0.043,0.919,0.045c0.497,0.124,1.005,0.384,1.427,0.755c0.388,0.343,0.691,0.77,0.804,1.241
			C14.151,47.257,14.153,47.59,14.064,47.955z M40.617,50.706c0,0.484-0.201,0.928-0.523,1.248c-0.322,0.322-0.766,0.523-1.25,0.523
			H16.429l0.124-1.683l0.171-2.316c0.168-0.753,0.149-1.472-0.011-2.142c-0.258-1.069-0.868-1.969-1.645-2.651
			c-0.744-0.657-1.664-1.124-2.573-1.35c-0.695-0.173-1.406-0.205-2.054-0.075l-2.374,0.295L5.435,42.88V7.206
			c0-0.493,0.196-0.934,0.51-1.25l0.011-0.011c0.316-0.316,0.76-0.512,1.25-0.512h31.638c0.491,0,0.934,0.196,1.25,0.512v0.011
			c0.322,0.322,0.523,0.766,0.523,1.25V50.706z"/>
	</g>
</g>
</svg>
