<?xml version="1.0" encoding="utf-8"?>
<!-- Generator: Adobe Illustrator 19.2.1, SVG Export Plug-In . SVG Version: 6.00 Build 0)  -->
<!DOCTYPE svg PUBLIC "-//W3C//DTD SVG 1.1//EN" "http://www.w3.org/Graphics/SVG/1.1/DTD/svg11.dtd">
<svg version="1.1" id="Layer_1" xmlns="http://www.w3.org/2000/svg" xmlns:xlink="http://www.w3.org/1999/xlink" x="0px" y="0px"
	 viewBox="0 0 82.922 91.106" style="enable-background:new 0 0 82.922 91.106;" xml:space="preserve">
<style type="text/css">
	.st0{fill:#4F4F4F;}
</style>
<path class="st0" d="M80.014,47.554L63.85,53.861l-8.846-5.107c0.243-1.03,0.386-2.098,0.386-3.201c0-1.103-0.143-2.17-0.386-3.199
	l8.847-5.108l16.163,6.309l2.908-7.453l-10.196-3.979l10.186-5.881l-4-6.928l-10.186,5.881l1.652-10.819l-7.908-1.209L59.85,30.318
	l-8.851,5.11c-1.556-1.466-3.441-2.582-5.538-3.213V22.009l13.544-10.843l-5-6.246l-8.544,6.841V0h-8v11.761L28.916,4.92l-5,6.246
	L37.46,22.009v10.207c-2.098,0.63-3.982,1.747-5.537,3.212l-8.853-5.11l-2.619-17.151l-7.908,1.207l1.652,10.819l-10.184-5.88
	l-4,6.928l10.184,5.881L0,36.1l2.908,7.453l16.163-6.308l8.845,5.107c-0.243,1.03-0.386,2.099-0.386,3.201
	c0,1.104,0.143,2.172,0.386,3.202l-8.845,5.106L2.908,47.554L0,55.007l10.195,3.979l-10.184,5.88l4,6.928l10.185-5.881l-1.651,10.82
	l7.908,1.207l2.618-17.15l8.852-5.11c1.556,1.465,3.439,2.581,5.537,3.212v10.207L23.916,79.94l5,6.246l8.544-6.841v11.761h8V79.346
	l8.544,6.841l5-6.246L45.46,69.098V58.891c2.098-0.631,3.982-1.747,5.537-3.213l8.854,5.111l2.618,17.151l7.908-1.207l-1.652-10.82
	l10.187,5.881l4-6.928l-10.186-5.881l10.196-3.979L80.014,47.554z M41.46,51.482c-3.27,0-5.93-2.66-5.93-5.93
	c0-3.27,2.66-5.929,5.93-5.929s5.93,2.659,5.93,5.929C47.39,48.822,44.729,51.482,41.46,51.482z"/>
</svg>
