<?xml version="1.0" encoding="utf-8"?>
<!-- Generator: Adobe Illustrator 19.2.1, SVG Export Plug-In . SVG Version: 6.00 Build 0)  -->
<svg version="1.1" id="Layer_1" xmlns="http://www.w3.org/2000/svg" xmlns:xlink="http://www.w3.org/1999/xlink" x="0px" y="0px"
	 viewBox="0 0 242 21.1" style="enable-background:new 0 0 242 21.1;" xml:space="preserve">
<style type="text/css">
	.st0{enable-background:new    ;}
	.st1{fill:#FFFFFF;}
</style>
<g>
	<g class="st0">
		<g>
			<g>
				<path class="st1" d="M83.6,1c-2.5-0.8-4.7-1-6.5-1c-7.9,0-12.3,4.6-12.3,10.6c0,5.5,3.9,10.5,11.7,10.5c3.8,0,6.1-0.9,7.2-1.3
					l-1.3-3.4c-0.9,0.4-2.6,1.1-4.5,1.1c-3,0-6.1-1.8-6.1-7c0-4.4,2.5-6.8,6.3-6.8c1.8,0,3.4,0.6,4.2,0.8L83.6,1z M83.9,13.2
					c0,4,3,7.8,9.3,7.8c6.1,0,9.7-3.3,9.7-8.1c0-4.3-2.8-7.9-9.4-7.9C86.8,5.1,83.9,9.1,83.9,13.2L83.9,13.2z M90.5,12.9
					c0-2.8,0.5-4.9,2.9-4.9c1.9,0,2.9,1,2.9,4.7c0,3.8-0.7,5.4-2.9,5.4C91.2,18.1,90.5,16.6,90.5,12.9L90.5,12.9z M102.8,5.4
					c1,1.3,2,3.4,2.7,5.7s1.2,5,1.2,7.6c0,0.9-0.1,1.6-0.1,2.1h3.7c2.9-2.4,8.4-8.3,9.9-15.3h-3.8c-0.2,1.3-1.2,5.3-4.6,9.6
					c0-0.2,0.1-1.1,0.1-1.6c0-2.8-0.7-5.6-2.2-7.9h-6.9V5.4z M137.9,13.5c0-0.8,0.5-8.4-8.6-8.4c-5.1,0-9.2,3.3-9.2,7.9
					c0,4,3.1,8,9.7,8c3.1,0,5.4-0.8,7.1-1.6l-1.3-2.8c-1.6,0.7-3.1,1.1-4.5,1.1c-3.2,0-4.5-2.1-4.4-4.2H137.9z M126.8,10.9
					c0.1-1.8,1-2.9,2.8-2.9c2.6,0,2.7,2.2,2.7,2.9H126.8z M139.7,5.4v15.3h6.2v-4.6c0-2.1,0.1-3,0.4-3.8c0.7-2,2.5-2.4,3.7-2.4
					c0.7,0,1.4,0.1,1.8,0.2l0.7-4.7c-0.9-0.2-1.6-0.2-1.9-0.2c-3.2,0-4.6,2.8-5.2,4.2l-0.4-4H139.7z M160.6,11.7
					c0-2.1-1.7-3.7-3.7-3.7s-3.7,1.7-3.7,3.7s1.6,3.7,3.7,3.7C158.8,15.4,160.6,13.8,160.6,11.7L160.6,11.7z M162.9,0.2v20.5h4.4
					V4.8l5.8,15.9h3l5.8-15.9v15.9h6.3V0.2H180l-4.4,12.2l-4.4-12.2H162.9z M190.5,13.2c0,4,3,7.8,9.3,7.8c6.1,0,9.7-3.3,9.7-8.1
					c0-4.3-2.8-7.9-9.4-7.9C193.4,5.1,190.5,9.1,190.5,13.2L190.5,13.2z M197.1,12.9c0-2.8,0.5-4.9,2.9-4.9c1.9,0,2.9,1,2.9,4.7
					c0,3.8-0.7,5.4-2.9,5.4C197.8,18.1,197.1,16.6,197.1,12.9L197.1,12.9z M211.5,5.4v15.3h6.2v-4.6c0-2.1,0.1-3,0.4-3.8
					c0.7-2,2.5-2.4,3.7-2.4c0.7,0,1.4,0.1,1.8,0.2l0.7-4.7c-0.9-0.2-1.6-0.2-1.9-0.2c-3.2,0-4.6,2.8-5.2,4.2l-0.4-4H211.5z
					 M242,13.5c0-0.8,0.5-8.4-8.6-8.4c-5.1,0-9.2,3.3-9.2,7.9c0,4,3.1,8,9.7,8c3.1,0,5.4-0.8,7.1-1.6l-1.3-2.8
					c-1.6,0.7-3.1,1.1-4.5,1.1c-3.2,0-4.5-2.1-4.4-4.2H242z M230.9,10.9c0.1-1.8,1-2.9,2.8-2.9c2.6,0,2.7,2.2,2.7,2.9H230.9z"/>
			</g>
			<g>
				<g>
					<path class="st1" d="M5,10.4c0,1.4-0.7,2.5-2.8,2.5H1.6v2.6H0V8.2h2.5C4,8.3,5,8.8,5,10.4z M1.6,9.6v2h0.5c1.1,0,1.3-0.5,1.3-1
						c0-0.7-0.4-1-1.2-1H1.6z"/>
					<path class="st1" d="M5.8,12.6c0-1.8,0.8-3.1,2.7-3.1c2,0,2.7,1.2,2.7,3s-0.8,3.1-2.7,3.1C6.4,15.6,5.8,14.4,5.8,12.6z
						 M8.5,14.4c0.8,0,1-0.6,1-1.8s-0.3-1.9-1.1-1.9c-0.7,0-1,0.6-1,1.8C7.4,13.8,7.7,14.4,8.5,14.4z"/>
					<path class="st1" d="M15.9,11.6l-1,3.9h-1.8l-1.5-5.8h1.6l0.6,2.7c0.1,0.6,0.2,1.1,0.3,1.8l0,0c0.1-0.7,0.2-1.3,0.3-1.8
						l0.7-2.7h1.5l0.6,2.7c0.1,0.6,0.3,1.2,0.3,1.9l0,0c0.1-0.6,0.2-1.2,0.4-1.9l0.6-2.7H20l-1.5,5.8h-1.8L15.9,11.6L15.9,11.6z"/>
					<path class="st1" d="M25.4,15c-0.5,0.4-1,0.7-2.1,0.7c-1.8,0-2.8-1-2.8-3.1c0-1.9,1.1-3,2.7-3c1.5,0,2.3,0.9,2.3,2.4
						c0,0.3,0,0.6-0.1,1H22c0,0.9,0.4,1.4,1.4,1.4c0.6,0,1.1-0.3,1.3-0.5L25.4,15z M22,11.9h2.1v-0.2c0-0.7-0.3-1-0.9-1
						C22.5,10.7,22,11.2,22,11.9z"/>
					<path class="st1" d="M30.3,11.1c-0.2,0-0.5-0.1-0.7-0.1c-0.5,0-1,0.2-1.4,0.5v4h-1.6V9.7h1.2l0.3,0.9l0,0c0.2-0.6,0.7-1,1.5-1
						c0.2,0,0.4,0,0.5,0.1v1.4H30.3z"/>
					<path class="st1" d="M35.8,15c-0.5,0.4-1,0.7-2.1,0.7c-1.8,0-2.8-1-2.8-3.1c0-1.9,1.1-3,2.7-3c1.5,0,2.3,0.9,2.3,2.4
						c0,0.3,0,0.6-0.1,1h-3.5c0,0.9,0.4,1.4,1.4,1.4c0.6,0,1.1-0.3,1.3-0.5L35.8,15z M32.4,11.9h2.1v-0.2c0-0.7-0.3-1-0.9-1
						C32.9,10.7,32.5,11.2,32.4,11.9z"/>
					<path class="st1" d="M40.4,7.7H42v7.8h-1.2L40.6,15l0,0c-0.2,0.2-0.6,0.6-1.4,0.6c-1.2,0-2.1-0.8-2.1-2.7
						c0-2.5,1.3-3.3,2.6-3.3c0.5,0,0.8,0.1,1,0.1v-2H40.4z M40.4,13.9v-2.8c-0.1-0.1-0.5-0.2-0.8-0.2c-0.6,0-1.2,0.3-1.2,1.9
						c0,1.1,0.4,1.6,1,1.6C39.9,14.4,40.2,14.2,40.4,13.9z"/>
					<path class="st1" d="M45.8,7.7h1.5V10l0,0c0.2-0.2,0.7-0.3,1.1-0.3c1.3,0,2.3,0.7,2.3,2.9c0,1.8-1,3.1-3,3.1
						c-1,0-1.5-0.1-2-0.4V7.7H45.8z M49.3,12.6c0-1.3-0.5-1.7-1.1-1.7c-0.4,0-0.6,0.1-0.8,0.3v3.1c0.2,0.1,0.4,0.1,0.6,0.1
						C48.8,14.4,49.3,13.8,49.3,12.6z"/>
					<path class="st1" d="M51.9,16.3c0.2,0.1,0.4,0.1,0.6,0.1c0.6,0,0.9-0.3,0.9-0.9l-2.2-5.8H53l0.7,2c0.2,0.7,0.4,1.5,0.5,2l0,0
						c0.1-0.5,0.2-1.3,0.4-2l0.5-2h1.6l-2,6.1c-0.3,1-1,1.9-2.4,1.9c-0.4,0-0.7-0.1-0.8-0.2L51.9,16.3z"/>
				</g>
			</g>
		</g>
	</g>
</g>
</svg>
