<?xml version="1.0" encoding="utf-8"?>
<!-- Generator: Adobe Illustrator 19.2.1, SVG Export Plug-In . SVG Version: 6.00 Build 0)  -->
<!DOCTYPE svg PUBLIC "-//W3C//DTD SVG 1.1//EN" "http://www.w3.org/Graphics/SVG/1.1/DTD/svg11.dtd">
<svg version="1.1" id="Layer_1" xmlns="http://www.w3.org/2000/svg" xmlns:xlink="http://www.w3.org/1999/xlink" x="0px" y="0px"
	 viewBox="0 0 64 80.7" style="enable-background:new 0 0 64 80.7;" xml:space="preserve">
<style type="text/css">
	.st0{fill:#116AB2;}
	.st1{fill:none;stroke:#FFFFFF;stroke-width:3;stroke-linecap:round;stroke-linejoin:round;stroke-miterlimit:10;}
	.st2{fill:#FFFFFF;}
	.st3{fill:#B7B7B7;}
</style>
<path class="st0" d="M61.4,26H40.6c-1.4,0-2.6-1.2-2.6-2.6V2.6C38,1.2,39.2,0,40.6,0h20.8C62.8,0,64,1.2,64,2.6v20.8
	C64,24.9,62.8,26,61.4,26z"/>
<polyline class="st1" points="44.6,13.1 48.9,17.3 57.4,8.8 "/>
<g>
	<g id="XMLID_3_">
		<g>
			<path class="st2" d="M25,57.7v20c0,1.1-0.9,2-2,2H3c-1.1,0-2-0.9-2-2v-20c0-1.1,0.9-2,2-2h20C24.1,55.7,25,56.6,25,57.7z"/>
			<path class="st3" d="M25,57.7c0-1.1-0.9-2-2-2H3c-1.1,0-2,0.9-2,2v20c0,1.1,0.9,2,2,2h20c1.1,0,2-0.9,2-2V57.7z M23,55.2
				c1.4,0,2.5,1.1,2.5,2.5v20c0,1.4-1.1,2.5-2.5,2.5H3c-1.4,0-2.5-1.1-2.5-2.5v-20c0-1.4,1.1-2.5,2.5-2.5H23z"/>
			<path class="st3" d="M25.5,57.7c0-1.4-1.1-2.5-2.5-2.5H3c-1.4,0-2.5,1.1-2.5,2.5v20c0,1.4,1.1,2.5,2.5,2.5h20
				c1.4,0,2.5-1.1,2.5-2.5V57.7z M26,77.7c0,1.7-1.3,3-3,3H3c-1.6,0-3-1.3-3-3v-20c0-1.6,1.3-3,3-3h20c1.6,0,3,1.3,3,3V77.7z"/>
		</g>
		<g>
		</g>
	</g>
</g>
</svg>
